<svg xmlns="http://www.w3.org/2000/svg" viewBox="0 0 32 32">
  <defs>
    <linearGradient id="grad" x1="0%" y1="0%" x2="100%" y2="100%">
      <stop offset="0%" style="stop-color:#00F0FF"/>
      <stop offset="100%" style="stop-color:#00FF85"/>
    </linearGradient>
  </defs>
  <path fill="url(#grad)" d="M16 2L4 8v8c0 7.73 5.12 14.95 12 16 6.88-1.05 12-8.27 12-16V8L16 2zm0 4l8 4v6c0 5.52-3.45 10.67-8 12-4.55-1.33-8-6.48-8-12v-6l8-4z"/>
  <path fill="url(#grad)" d="M16 10l-4 2v3c0 2.76 1.72 5.33 4 6 2.28-.67 4-3.24 4-6v-3l-4-2z"/>
</svg>
