<svg xmlns="http://www.w3.org/2000/svg" width="1200" height="630" viewBox="0 0 1200 630">
  <defs>
    <linearGradient id="bgGrad" x1="0%" y1="0%" x2="100%" y2="100%">
      <stop offset="0%" style="stop-color:#0a0a0a"/>
      <stop offset="100%" style="stop-color:#050505"/>
    </linearGradient>
    <linearGradient id="textGrad" x1="0%" y1="0%" x2="100%" y2="0%">
      <stop offset="0%" style="stop-color:#00F0FF"/>
      <stop offset="100%" style="stop-color:#00FF85"/>
    </linearGradient>
  </defs>
  
  <!-- Background -->
  <rect width="1200" height="630" fill="url(#bgGrad)"/>
  
  <!-- Waveform decoration -->
  <g transform="translate(800, 315)" opacity="0.15">
    <rect x="0" y="-80" width="12" height="160" rx="6" fill="#00F0FF"/>
    <rect x="30" y="-120" width="12" height="240" rx="6" fill="#00F0FF"/>
    <rect x="60" y="-60" width="12" height="120" rx="6" fill="#00FF85"/>
    <rect x="90" y="-140" width="12" height="280" rx="6" fill="#00F0FF"/>
    <rect x="120" y="-100" width="12" height="200" rx="6" fill="#00FF85"/>
    <rect x="150" y="-70" width="12" height="140" rx="6" fill="#00F0FF"/>
    <rect x="180" y="-110" width="12" height="220" rx="6" fill="#00FF85"/>
    <rect x="210" y="-50" width="12" height="100" rx="6" fill="#00F0FF"/>
  </g>
  
  <!-- Accent line -->
  <rect x="80" y="180" width="6" height="270" fill="url(#textGrad)"/>
  
  <!-- Text -->
  <text x="120" y="260" font-family="Arial Black, sans-serif" font-size="80" font-weight="900" fill="url(#textGrad)">FED UP</text>
  <text x="120" y="340" font-family="Arial, sans-serif" font-size="32" fill="#ffffff">WHERE MISSION MEETS REALITY</text>
  <text x="120" y="400" font-family="Arial, sans-serif" font-size="24" fill="#888888">The Podcast for Federal Health IT</text>
  <text x="120" y="440" font-family="Arial, sans-serif" font-size="24" fill="#888888">& Defense Innovation</text>
  
  <!-- Podcast icon -->
  <circle cx="120" y="520" r="20" fill="none" stroke="#00F0FF" stroke-width="2" cx="100"/>
  <text x="80" y="528" font-family="Arial, sans-serif" font-size="24" fill="#00F0FF">🎙️</text>
  <text x="120" y="528" font-family="Arial, sans-serif" font-size="20" fill="#666666">Available on all platforms</text>
</svg>
